<?xml version="1.0" encoding="UTF-8" standalone="no"?>
<svg width="70px" height="85px" viewBox="0 0 70 85" version="1.1" xmlns="http://www.w3.org/2000/svg" xmlns:xlink="http://www.w3.org/1999/xlink" xmlns:sketch="http://www.bohemiancoding.com/sketch/ns">
    <!-- Generator: sketchtool 3.4 (356) - http://www.bohemiancoding.com/sketch -->
    <title>station logo</title>
    <desc>Created with sketchtool.</desc>
    <defs></defs>
    <g id="Welcome" stroke="none" stroke-width="1" fill="none" fill-rule="evenodd" sketch:type="MSPage">
        <g id="login" sketch:type="MSArtboardGroup" transform="translate(-477.000000, -74.000000)" fill="#FFFFFF">
            <g id="station-logo" sketch:type="MSLayerGroup" transform="translate(477.461556, 74.235921)">
                <path d="M50.6134036,60.0569099 C50.6135741,63.0857443 49.3642205,65.856306 47.3070938,67.9660435 C48.9939343,69.6647224 50.6775342,71.3696966 52.3578935,73.0813062 C55.7781375,69.6599585 57.87961,65.0384424 57.8789278,59.9616314 C57.8789278,54.9317791 55.8161725,50.3485446 52.4513605,46.9375755 C50.7401298,48.6810013 49.0253174,50.4177916 47.3072643,52.1479465 C49.3643911,54.2576839 50.6135741,57.0282456 50.6134036,60.0569099" id="Fill-1" sketch:type="MSShapeGroup"></path>
                <path d="M44.5834176,65.2317216 C45.9361307,63.8243226 46.7503852,62.0208373 46.7503852,60.0569099 C46.7503852,58.0931526 45.9361307,56.2896674 44.5835882,54.8822683 C42.8532548,56.6139545 41.1195102,58.338835 39.3823543,60.05708 C41.1195102,61.775155 42.8532548,63.5000355 44.5834176,65.2317216" id="Fill-2" sketch:type="MSShapeGroup"></path>
                <path d="M60.1753505,38.9988375 C58.5072716,40.7283118 56.835952,42.4514909 55.1610507,44.1682047 C59.2353932,48.2772588 61.7421167,53.843733 61.7419461,59.9612912 C61.7431401,66.1263184 59.1976994,71.7315846 55.0680954,75.8503366 C56.7740387,77.5986965 58.4764002,79.3536918 60.1753505,81.1153226 C60.1649464,81.1308053 69.3888429,73.5839001 68.9100804,60.05708 C69.3888429,46.5300899 60.1649464,38.9833548 60.1753505,38.9988375" id="Fill-3" sketch:type="MSShapeGroup"></path>
                <path d="M50.6134036,60.0569099 C50.6135741,63.0857443 49.3642205,65.856306 47.3070938,67.9660435 C48.9939343,69.6647224 50.6775342,71.3696966 52.3578935,73.0813062 C55.7781375,69.6599585 57.87961,65.0384424 57.8789278,59.9616314 C57.8789278,54.9317791 55.8161725,50.3485446 52.4513605,46.9375755 C50.7401298,48.6810013 49.0253174,50.4177916 47.3072643,52.1479465 C49.3643911,54.2576839 50.6135741,57.0282456 50.6134036,60.0569099" id="Fill-4" sketch:type="MSShapeGroup"></path>
                <path d="M44.5834176,65.2317216 C45.9361307,63.8243226 46.7503852,62.0208373 46.7503852,60.0569099 C46.7503852,58.0931526 45.9361307,56.2896674 44.5835882,54.8822683 C42.8532548,56.6139545 41.1195102,58.338835 39.3823543,60.05708 C41.1195102,61.775155 42.8532548,63.5000355 44.5834176,65.2317216" id="Fill-5" sketch:type="MSShapeGroup"></path>
                <path d="M60.1753505,38.9988375 C58.5072716,40.7283118 56.835952,42.4514909 55.1610507,44.1682047 C59.2353932,48.2772588 61.7421167,53.843733 61.7419461,59.9612912 C61.7431401,66.1263184 59.1976994,71.7315846 55.0680954,75.8503366 C56.7740387,77.5986965 58.4764002,79.3536918 60.1753505,81.1153226 C60.1649464,81.1308053 69.3888429,73.5839001 68.9100804,60.05708 C69.3888429,46.5300899 60.1649464,38.9833548 60.1753505,38.9988375" id="Fill-6" sketch:type="MSShapeGroup"></path>
                <path d="M68.7657865,24.0011562 L68.7657865,19.7883167 C68.7657865,6.26523974 63.5393097,0.0740109518 45.573008,0.0740109518 L24.5033632,0.0740109518 C7.68049718,0.0740109518 0.00392288502,5.61360309 0.00392288502,20.7657717 L0.00392288502,24.1872895 C0.00392288502,39.0138098 6.21060922,44.7162261 23.8501175,44.7162261 L43.1230811,44.7162261 L50.9308162,36.8916521 C48.9993922,36.6759145 46.8914385,36.569747 44.5931396,36.569747 L25.6467989,36.569747 C12.9069739,36.569747 9.64040464,33.3112235 9.64040464,23.5356528 L9.64040464,21.4175785 C9.64040464,11.6418376 13.0703706,8.38331408 24.9933827,8.38331408 L44.2663462,8.38331408 C56.8427744,8.38331408 59.1294753,11.8048319 59.1294753,21.5804026 L59.1294753,24.0242952 L68.7657865,24.0011562" id="Fill-7" sketch:type="MSShapeGroup"></path>
                <path d="M24.5033632,75.3465517 C11.9271055,75.3465517 9.64040464,71.4362213 9.64040464,61.6606507 L9.64040464,57.9133145 L0.00392288502,57.8423661 L0.00392288502,63.6157308 C0.00392288502,76.9758135 5.23057021,83.8188491 23.1968719,83.8188491 L44.2663462,83.8188491 C46.5629395,83.8188491 48.6877787,83.7147233 50.6470039,83.4977947 L42.4352117,75.3465517 L24.5033632,75.3465517" id="Fill-8" sketch:type="MSShapeGroup"></path>
            </g>
        </g>
    </g>
</svg>